<svg id="eHk0ChNYnd71" xmlns="http://www.w3.org/2000/svg" xmlns:xlink="http://www.w3.org/1999/xlink" viewBox="0 0 2000 1000" shape-rendering="geometricPrecision" text-rendering="geometricPrecision" project-id="f1b8fcfba78a436c922c2559c56ee8a3" export-id="e052d119c861460ea089f627a611c340" cached="false"><path d="M2001.884576,-0.153992c-17.925431.062948-852.769766-24.221899-966.778212,296.227796-29.581317,83.145805-26.114828,622.708475-2.888429,643.772204h-40v-107.688663-372.311337-460.288098l341.312203.288098c668.519063-.288098,700.724836,0,668.354438,0Z" transform="matrix(-1 0 0 0.5 2002.217935 0.221045)" fill="#fff" stroke-width="4" stroke-linecap="round"/><path d="M2001.884576,-0.153992c-17.925431.062948-852.769766-24.221899-966.778212,296.227796-29.581317,83.145805-26.448187,622.708475-3.221788,643.772204h-40v-107.688663-372.311337-460.288098l341.645562.288098c668.519063-.288098,700.724836,0,668.354438,0Z" transform="matrix(1 0 0 0.5-1.884576 0.221045)" fill="#fff" stroke-width="4" stroke-linecap="round"/><path d="M940,470.144049c0,0,19.99992-2.286919,60-2.286919s60,2.286919,60,2.286919-27.137237-9.41517-35-17.072025-15-33.072024-15-33.072024l-20-.000001c0,0-7.137237,25.41517-15,33.072025s-35,17.072025-35,17.072025Z" transform="matrix(.999998 0 0 2.033202 0.002-481.248053)" fill="#fff" stroke-width="4" stroke-linecap="round" stroke-linejoin="round"/></svg>
