<?xml version="1.0" encoding="UTF-8"?>
<svg id="Layer_1" data-name="Layer 1" xmlns="http://www.w3.org/2000/svg" viewBox="0 0 595.28 561.02">
  <defs>
    <style>
      .cls-1 {
        fill: #231f20;
      }

      .cls-2 {
        fill: #fff;
      }

      .cls-3 {
        fill: none;
        stroke: #fff;
        stroke-miterlimit: 10;
        stroke-width: 2px;
      }
    </style>
  </defs>
  <rect class="cls-1" x="-10.17" y="-9.87" width="621.96" height="574.98"/>
  <path class="cls-2" d="M423.23,95.49c2.33.48,3.44-2.76,1.31-3.8C256.17,9.65,119.82,152.03,119.82,277.28c2.14,115.89,91.24,210.99,221.1,202.32,1.64-.11,3.28-.28,4.9-.52,124.99-18.41,187.59-131.9,170.3-212.13-.32-1.46-2.38-1.51-2.77-.06-6.7,24.46-14.48,32.35-41.45,55.46-2.77,2.38-16.01,17.77-17.57,21.07-13.35,28.17.5,93.73-175.52,40.28-7.17-2.37-14.45-4.47-21.9-5.74-29.99-5.11-57.28-12.53-75.43-27.76-8.81-7.38-14.69-17.66-17.15-28.89-9.68-44.27-5.23-88.09,27.11-131.04,27.82-30.66,58.69-56.87,101.07-66.27,24.46-6.01,46.13-13.38,59.5-24.79.5-.43,1-.85,1.53-1.25,16.01-11.87,42.23-8.11,69.69-2.47Z"/>
  <path class="cls-3" d="M192.72,218.87c7.42-19.47,18.37-35.41,36.06-44.61,3.89-2.02,8.63-1.92,12.23.58,6.43,4.46,8.1,10.28,5.12,17.43-11.19,8.85-29.56,18.21-52.07,27.86-.8.34-1.65-.45-1.34-1.27Z"/>
  <ellipse class="cls-2" cx="427.67" cy="199.81" rx="41.9" ry="34.95" transform="translate(-43.75 224.04) rotate(-27.98)"/>
  <path d="M181.87,185.58c18.87-55.07,45.41-99.58,101.74-103.08,12.99,3,18.23,7.66,12.98,14.58-2.23,2.94-5.43,4.99-8.93,6.14-24.9,8.18-56.9,19.5-105.78,82.36Z"/>
  <path class="cls-2" d="M213.66,139.51c7.66-12.84,15.73-25.06,26.16-33.57,7.12-5.81,16.18-8.71,25.37-8.71h0c1.43,0,1.92,1.91.66,2.59-18.99,10.21-35.74,24.6-52.05,39.81-.08.07-.2-.02-.14-.11Z"/>
  <path d="M222.2,150.27c8.38-14.22,21.94-27.78,54.34-38.89,3.01-1.03,6.14-1.67,9.28-2.21,8.15-1.4,14.22-5.71,18.39-12.66.57-.96,1.13-1.93,1.83-2.8,10.54-13.06,25.73-2.79,20.08,9.37-4.26,5.49-20.52,11.9-44.93,18.93-1.49.43-3.02.77-4.53,1.11-17.23,3.86-35.72,14.86-54.45,27.14Z"/>
  <path class="cls-3" d="M175.69,256.93c-11.72,21.01-8.91,42.09-2.32,63.2,6.69,21.45,25.32,37.27,47.69,39.42.19.02.37.04.56.05,28.91,7.61,40.91-2.21,42.17-23.09,1.26-21.45-8.4-37.56-28.06-48.77-1.53-.87-4.11-2.2-5.75-2.85-8.61-3.42-20.36-15.66-34.35-34.22-2.9-3.85-8.31-4.8-12.34-2.17-.18.12-.36.24-.54.37-2.95,2.07-5.3,4.91-7.06,8.06Z"/>
  <path class="cls-2" d="M177.94,301.96c.36-12.07,3.88-15.89,13.55-3.6,9.59,9.84,14.73,21.83,18.18,34.64.74,2.74,1.06,5.61.65,8.43-.69,4.84-2.94,6.51-8.16,2.1-1.67-1.41-3.32-2.87-5.08-4.17-10.97-8.17-16.74-21.21-19.15-37.39Z"/>
  <path class="cls-3" d="M371.98,385.24c41.8,16.74,53.01-1.15,57.49-26.64.48-2.73-1.63-5.26-4.4-5.18-12.84.38-45.23,15.91-54.47,25.27-2.02,2.05-1.29,5.48,1.38,6.55Z"/>
  <path d="M190.29,377.68c27.22-3.36,54.44-2.28,81.61,10.54,11.15,7.96,10.27,10.03,0,7.53-21.54-7.31-49.44-13.18-81.61-18.07Z"/>
  <path d="M283.9,391.74l14.7,10.54c25.86,8.92,52.52,12.88,92.9,15.35,1.24.08,15.94-.68,17.17-.82,38.45-4.49,45.55-29.91,53.82-55.06,2.69-8.18,6.78-15.83,11.8-22.83,15.08-21.04,26.92-32.22,29.03-46.08-15.38,26.21-33.25,28.72-45.79,51.98-2.86,5.31-5.26,10.84-6.69,16.7-10.74,43.82-42.56,50.49-81.41,44.77-31.41-3.16-59.89-8.2-85.18-15.3-.46-.13-.74.47-.35.75Z"/>
  <path d="M244.29,406.3c-6.51-3.95-7.04-7.35,5.52-9.54,16.8,1.16,29.84,7.03,41.17,15.06,7.63,9.54,5.83,16.06-2.01,16.06-19.99-7.28-37.46-14.52-44.68-21.59Z"/>
  <path d="M320.09,425.37c4.87,6.36,14.56,9.82,27.11,11.55,37.15,1.38,58.79-6.26,78.31-18.98-38.62,6.8-62.84,3.2-89.86.4-24.89-1.79-19.53,2.77-15.56,7.04Z"/>
  <path d="M465.89,372.35c13.1-14.18,22.9-30.64,29.4-49.4.15-.43-.38-.8-.73-.51-15.91,12.88-25.52,29.49-28.83,49.83-.01.09.1.15.16.08Z"/>
</svg>